# xmcd
#
# Track frame offsets: 
#        150
#        24159
#        41097
#        59956
#        82682
#        106019
#        126840
#        149454
#        171560
#        196757
#        214084
#        235888
#        251618
#        271804
#        296142
#        312908
#        336698
#
# Disc length: 4733 seconds
#
# Revision: 2
# Processed by: cddbd v1.5.2PL0 Copyright (c) Steve Scherf et al.
# Submitted via: ExactAudioCopy v1.3
#
DISCID=03127b11
DTITLE=Dave Hole - Blues Profile
DYEAR=1900
DGENRE=
TTITLE0=Short Fuse Blues
TTITLE1=Keep Your Motor Running
TTITLE2=Albatros
TTITLE3=Tore Down
TTITLE4=The Sun is Shining
TTITLE5=Stormy Seas
TTITLE6=Key to the Highway
TTITLE7=Crazy Kind of Woman
TTITLE8=Berwick Road
TTITLE9=Short Memory
TTITLE10=Run with Me
TTITLE11=Blues is the Truth
TTITLE12=Yes or No
TTITLE13=Demolition Man
TTITLE14=Bermuda Triangle
TTITLE15=Bullfrog Blues
TTITLE16=Don't Say Goodbuy
EXTD=
EXTT0=
EXTT1=
EXTT2=
EXTT3=
EXTT4=
EXTT5=
EXTT6=
EXTT7=
EXTT8=
EXTT9=
EXTT10=
EXTT11=
EXTT12=
EXTT13=
EXTT14=
EXTT15=
EXTT16=
PLAYORDER=
